<svg width="23" height="23" viewBox="0 0 23 23" fill="none" xmlns="http://www.w3.org/2000/svg">
<rect x="0.5" y="0.357422" width="22" height="22" rx="11" fill="white"/>
<path fill-rule="evenodd" clip-rule="evenodd" d="M11.7278 5.36306C12.0315 5.05932 12.524 5.05932 12.8278 5.36306L18.2722 10.8075C18.5759 11.1112 18.5759 11.6037 18.2722 11.9075L12.8278 17.3519C12.524 17.6556 12.0315 17.6556 11.7278 17.3519C11.4241 17.0482 11.4241 16.5557 11.7278 16.252L15.8445 12.1353H5.27778C4.84823 12.1353 4.5 11.7871 4.5 11.3575C4.5 10.9279 4.84823 10.5797 5.27778 10.5797H15.8445L11.7278 6.46301C11.4241 6.15926 11.4241 5.6668 11.7278 5.36306Z" fill="#243C6D"/>
</svg>
