<svg xmlns="http://www.w3.org/2000/svg" version="1.1" xmlns:xlink="http://www.w3.org/1999/xlink" xmlns:svgjs="http://svgjs.dev/svgjs" width="1000" height="1000"><g clip-path="url(#SvgjsClipPath1090)"><rect width="1000" height="1000" fill="#0e172a"></rect><g transform="matrix(14.893617021276595,0,0,14.893617021276595,150,179.78723404255322)"><svg xmlns="http://www.w3.org/2000/svg" version="1.1" xmlns:xlink="http://www.w3.org/1999/xlink" xmlns:svgjs="http://svgjs.dev/svgjs" width="47" height="43"><svg width="47" height="43" viewBox="0 0 47 43" fill="none" xmlns="http://www.w3.org/2000/svg">
<g clip-path="url(#clip0_94_2)">
<path d="M35.1099 2.27721C35.4099 2.47721 35.6999 2.68721 35.9899 2.90721C40.3999 6.24721 43.2499 11.1072 44.0099 16.5872C44.7699 22.0672 43.3499 27.5172 40.0099 31.9272C36.6699 36.3372 31.8099 39.1872 26.3299 39.9472C20.8499 40.7072 15.3999 39.2872 10.9899 35.9472C6.57994 32.6072 3.72994 27.7472 2.96994 22.2672C2.86994 21.5172 2.79994 20.7772 2.77994 20.0372L0.189941 20.2072C0.219941 21.0072 0.28994 21.8172 0.39994 22.6272C1.24994 28.7972 4.45994 34.2672 9.41994 38.0272C14.3899 41.7872 20.5199 43.3872 26.6899 42.5372C32.8599 41.6872 38.3299 38.4772 42.0899 33.5172C45.8499 28.5572 47.4499 22.4172 46.5999 16.2472C45.7499 10.0772 42.5399 4.60721 37.5799 0.847206C37.2599 0.597206 36.9299 0.367207 36.5899 0.137207L35.1299 2.28721L35.1099 2.27721Z" fill="white"></path>
<path d="M38.1401 14.477C38.6701 16.047 38.9401 17.707 38.9401 19.407C38.9401 23.527 37.3401 27.397 34.4301 30.307C31.5201 33.217 27.6501 34.817 23.5301 34.817C19.4101 34.817 15.5401 33.217 12.6301 30.307C9.72011 27.397 8.12012 23.527 8.12012 19.407C8.12012 15.287 9.58011 11.777 12.2401 8.91699L14.2601 10.567C11.9801 12.957 10.7201 16.087 10.7201 19.407C10.7201 22.727 12.0501 26.047 14.4701 28.467C16.8901 30.887 20.1101 32.217 23.5301 32.217C26.9501 32.217 30.1701 30.887 32.5901 28.467C35.0101 26.047 36.3401 22.827 36.3401 19.407C36.3401 17.947 36.1001 16.527 35.6301 15.187L38.1301 14.477H38.1401Z" fill="white"></path>
<path d="M19.8001 11.3671C18.8701 11.7971 18.0201 12.3971 17.2701 13.1371C15.6001 14.8071 14.6801 17.0371 14.6801 19.3971C14.6801 21.7571 15.6001 23.9871 17.2701 25.6571C18.9401 27.3271 21.1701 28.2471 23.5301 28.2471C25.8901 28.2471 28.1201 27.3271 29.7901 25.6571C31.4601 23.9871 32.3801 21.7571 32.3801 19.3971C32.3801 19.0971 32.3701 18.8071 32.3401 18.5171H34.9501C34.9701 18.8171 34.9801 19.1071 34.9801 19.3971C34.9801 22.4571 33.7901 25.3371 31.6201 27.4971C29.4601 29.6571 26.5801 30.8571 23.5201 30.8571C20.4601 30.8571 17.5801 29.6671 15.4201 27.4971C13.2601 25.3371 12.0601 22.4571 12.0601 19.3971C12.0601 16.3371 13.2501 13.4571 15.4201 11.2971C16.3501 10.3671 17.4101 9.61713 18.5701 9.05713L19.7901 11.3571L19.8001 11.3671Z" fill="white"></path>
<path d="M23.3798 14.5072C22.1298 14.5472 20.9598 15.0472 20.0698 15.9372C19.1398 16.8672 18.6298 18.0972 18.6298 19.4072C18.6298 20.7172 19.1398 21.9472 20.0698 22.8772C20.9998 23.8072 22.2298 24.3172 23.5398 24.3172C24.8498 24.3172 26.0798 23.8072 27.0098 22.8772C27.9398 21.9472 28.4498 20.7172 28.4498 19.4072H31.0498C31.0498 21.4072 30.2698 23.2972 28.8498 24.7072C27.4298 26.1272 25.5498 26.9072 23.5498 26.9072C21.5498 26.9072 19.6598 26.1272 18.2498 24.7072C16.8298 23.2872 16.0498 21.4072 16.0498 19.4072C16.0498 17.4072 16.8298 15.5172 18.2498 14.1072C19.6298 12.7272 21.4498 11.9472 23.3898 11.9072V14.5072H23.3798Z" fill="white"></path>
<path d="M37.3701 5.88721C40.7901 9.37721 42.9001 14.1672 42.9001 19.4372C42.9001 30.1372 34.2302 38.8072 23.5302 38.8072C12.8302 38.8072 4.16016 30.1372 4.16016 19.4372C4.16016 15.9172 5.10016 12.6272 6.73016 9.78721L9.00015 11.0272C7.56015 13.5072 6.74015 16.3772 6.74015 19.4372C6.74015 28.6972 14.2702 36.2272 23.5302 36.2272C32.7902 36.2272 40.3202 28.6972 40.3202 19.4372C40.3202 14.8572 38.4802 10.6972 35.4902 7.66721L37.3701 5.88721Z" fill="white"></path>
</g>
<defs>
<clipPath id="clip0_94_2">
<rect width="47" height="43" fill="white"></rect>
</clipPath>
<clipPath id="SvgjsClipPath1090"><rect width="1000" height="1000" x="0" y="0" rx="500" ry="500"></rect></clipPath></defs>
</svg></svg></g></g></svg>