<svg width="203" height="40" viewBox="0 0 203 40" fill="none" xmlns="http://www.w3.org/2000/svg">
<g clip-path="url(#clip0_1_226)">
<path d="M137.282 39.9429V33.9184H141.26V34.596H138.048V36.6041H140.755V37.2409H138.048V39.9429H137.282Z" fill="white"/>
<path d="M146.185 40.0245C145.85 40.0245 145.549 39.9674 145.28 39.845C145.011 39.7225 144.774 39.5592 144.579 39.347C144.383 39.1347 144.228 38.8899 144.122 38.6205C144.016 38.3429 143.959 38.0572 143.959 37.7552C143.959 37.4531 144.016 37.1511 144.122 36.8817C144.228 36.6123 144.383 36.3674 144.579 36.1552C144.774 35.9429 145.011 35.7796 145.288 35.6572C145.565 35.5348 145.867 35.4776 146.201 35.4776C146.535 35.4776 146.829 35.5348 147.098 35.6572C147.367 35.7796 147.603 35.9429 147.807 36.1552C148.011 36.3674 148.157 36.6123 148.272 36.8817C148.386 37.1511 148.435 37.4531 148.435 37.7552C148.435 38.0572 148.378 38.3511 148.272 38.6205C148.166 38.898 148.011 39.1429 147.815 39.347C147.619 39.5592 147.383 39.7225 147.106 39.845C146.829 39.9674 146.527 40.0245 146.193 40.0245H146.185ZM144.717 37.7552C144.717 38.0572 144.782 38.3347 144.913 38.5796C145.043 38.8245 145.223 39.0205 145.443 39.1674C145.663 39.3143 145.907 39.3796 146.176 39.3796C146.445 39.3796 146.698 39.3062 146.918 39.1592C147.138 39.0123 147.318 38.8164 147.456 38.5633C147.587 38.3103 147.652 38.0409 147.652 37.7388C147.652 37.4368 147.587 37.1592 147.456 36.9143C147.326 36.6694 147.147 36.4735 146.918 36.3266C146.698 36.1796 146.445 36.1062 146.176 36.1062C145.907 36.1062 145.663 36.1796 145.443 36.3266C145.223 36.4735 145.043 36.6694 144.913 36.9225C144.782 37.1674 144.717 37.445 144.717 37.7552Z" fill="white"/>
<path d="M151.704 38.1796V35.5347H152.454V38.0327C152.454 38.4817 152.535 38.8164 152.69 39.045C152.845 39.2735 153.082 39.3796 153.391 39.3796C153.595 39.3796 153.791 39.3388 153.978 39.249C154.166 39.1592 154.337 39.0368 154.492 38.8735C154.647 38.7103 154.761 38.5143 154.851 38.2939V35.5347H155.601V39.0939C155.601 39.1837 155.617 39.249 155.658 39.2899C155.699 39.3307 155.756 39.3552 155.837 39.3633V39.9429C155.756 39.9511 155.682 39.9592 155.642 39.9674C155.601 39.9756 155.544 39.9674 155.503 39.9674C155.364 39.9674 155.242 39.9266 155.136 39.8368C155.038 39.747 154.981 39.6409 154.973 39.5103L154.957 38.996C154.761 39.3225 154.508 39.5756 154.182 39.7552C153.856 39.9347 153.506 40.0245 153.122 40.0245C152.658 40.0245 152.307 39.8694 152.071 39.5592C151.834 39.249 151.712 38.7837 151.712 38.1796H151.704Z" fill="white"/>
<path d="M163.101 39.9429H162.351V37.4858C162.351 37.0205 162.278 36.6776 162.139 36.4654C161.992 36.2531 161.772 36.1388 161.479 36.1388C161.275 36.1388 161.071 36.1878 160.876 36.2939C160.68 36.4001 160.501 36.5307 160.338 36.7021C160.174 36.8735 160.068 37.0694 160.003 37.2899V39.9429H159.253V35.5348H159.93V36.4899C160.052 36.2858 160.199 36.1062 160.386 35.9511C160.574 35.796 160.786 35.6817 161.022 35.6001C161.259 35.5184 161.511 35.4776 161.772 35.4776C162.033 35.4776 162.237 35.5266 162.416 35.6164C162.588 35.7062 162.726 35.8368 162.824 36.0082C162.922 36.1796 162.995 36.3674 163.036 36.596C163.077 36.8245 163.101 37.0613 163.101 37.3307V39.9592V39.9429Z" fill="white"/>
<path d="M166.387 37.747C166.387 37.3307 166.476 36.947 166.648 36.6041C166.819 36.2613 167.055 35.9837 167.357 35.7715C167.659 35.5674 168.009 35.4613 168.392 35.4613C168.751 35.4613 169.069 35.5511 169.346 35.7388C169.631 35.9266 169.852 36.1552 170.006 36.4164V33.7307H170.757V39.0776C170.757 39.1674 170.773 39.2327 170.814 39.2735C170.854 39.3143 170.911 39.3388 170.993 39.347V39.9266C170.854 39.9511 170.74 39.9592 170.659 39.9592C170.512 39.9592 170.382 39.9103 170.276 39.8041C170.161 39.7062 170.112 39.5919 170.112 39.4613V39.0858C169.941 39.3715 169.705 39.5919 169.411 39.7552C169.118 39.9184 168.808 40.0001 168.498 40.0001C168.188 40.0001 167.911 39.9429 167.65 39.8205C167.39 39.698 167.169 39.5347 166.982 39.3225C166.794 39.1103 166.648 38.8654 166.542 38.596C166.436 38.3266 166.387 38.0327 166.387 37.7307V37.747ZM170.023 38.4001V37.1429C169.958 36.9552 169.843 36.7837 169.689 36.6286C169.534 36.4735 169.362 36.3511 169.175 36.2613C168.987 36.1715 168.8 36.1225 168.612 36.1225C168.392 36.1225 168.197 36.1715 168.017 36.2613C167.838 36.3511 167.683 36.4735 167.561 36.6286C167.43 36.7837 167.332 36.9552 167.267 37.1511C167.202 37.347 167.169 37.5511 167.169 37.7633C167.169 37.9756 167.21 38.1878 167.284 38.3837C167.357 38.5796 167.471 38.7511 167.61 38.9062C167.748 39.0613 167.911 39.1756 168.091 39.2572C168.27 39.3388 168.474 39.3797 168.686 39.3797C168.824 39.3797 168.963 39.3552 169.11 39.3062C169.256 39.2572 169.387 39.1837 169.517 39.0939C169.648 39.0041 169.754 38.898 169.852 38.7756C169.941 38.6531 169.998 38.5307 170.031 38.3919L170.023 38.4001Z" fill="white"/>
<path d="M174.083 38.6694C174.083 38.3919 174.164 38.147 174.327 37.9429C174.49 37.7388 174.711 37.5756 174.996 37.4694C175.281 37.3633 175.607 37.298 175.982 37.298C176.178 37.298 176.39 37.3143 176.61 37.347C176.83 37.3796 177.026 37.4286 177.197 37.4858V37.1674C177.197 36.8327 177.099 36.5715 176.895 36.3756C176.692 36.1796 176.406 36.0899 176.031 36.0899C175.787 36.0899 175.558 36.1307 175.33 36.2205C175.11 36.3103 174.874 36.4327 174.621 36.596L174.352 36.0654C174.637 35.8694 174.931 35.7225 175.216 35.6164C175.501 35.5184 175.803 35.4694 176.113 35.4694C176.675 35.4694 177.124 35.6245 177.45 35.9348C177.776 36.245 177.939 36.6776 177.939 37.2327V39.0939C177.939 39.1837 177.955 39.249 177.996 39.2899C178.029 39.3307 178.094 39.3552 178.175 39.3633V39.9429C178.102 39.9511 178.037 39.9592 177.988 39.9674C177.931 39.9674 177.89 39.9756 177.857 39.9756C177.686 39.9756 177.548 39.9266 177.466 39.8286C177.376 39.7307 177.328 39.6327 177.319 39.5266L177.303 39.249C177.107 39.5021 176.863 39.6899 176.545 39.8286C176.235 39.9674 175.925 40.0327 175.624 40.0327C175.322 40.0327 175.069 39.9756 174.833 39.8531C174.596 39.7307 174.417 39.5674 174.287 39.3633C174.156 39.1592 174.091 38.9307 174.091 38.6776L174.083 38.6694ZM176.961 38.9796C177.026 38.898 177.083 38.8245 177.124 38.7429C177.164 38.6613 177.181 38.596 177.181 38.5388V37.9919C177.01 37.9266 176.822 37.8694 176.626 37.8368C176.431 37.8041 176.243 37.7796 176.056 37.7796C175.681 37.7796 175.371 37.8531 175.134 38.0001C174.898 38.147 174.784 38.3511 174.784 38.6123C174.784 38.7511 174.825 38.8899 174.898 39.0205C174.971 39.1511 175.086 39.2572 175.24 39.347C175.395 39.4368 175.575 39.4694 175.795 39.4694C176.023 39.4694 176.243 39.4205 176.455 39.3307C176.667 39.2409 176.83 39.1184 176.953 38.9796H176.961Z" fill="white"/>
<path d="M183.801 39.747C183.735 39.7715 183.654 39.8123 183.548 39.8613C183.442 39.9103 183.32 39.9429 183.173 39.9837C183.034 40.0164 182.879 40.0327 182.725 40.0327C182.545 40.0327 182.374 40.0001 182.227 39.9347C182.072 39.8694 181.95 39.7715 181.86 39.6327C181.771 39.4939 181.722 39.3225 181.722 39.1103V36.1307H181.119V35.5429H181.722V34.0654H182.472V35.5429H183.466V36.1307H182.472V38.8817C182.48 39.0368 182.537 39.1592 182.635 39.2327C182.733 39.3062 182.847 39.347 182.977 39.347C183.124 39.347 183.263 39.3225 183.385 39.2735C183.507 39.2245 183.589 39.1837 183.63 39.1592L183.809 39.7552L183.801 39.747Z" fill="white"/>
<path d="M186.907 34.6776V33.747H187.657V34.6776H186.907ZM186.907 39.9429V35.5103H187.657V39.9429H186.907Z" fill="white"/>
<path d="M193.209 40.0245C192.875 40.0245 192.573 39.9674 192.304 39.845C192.035 39.7225 191.798 39.5592 191.603 39.347C191.407 39.1347 191.252 38.8899 191.146 38.6205C191.04 38.3429 190.983 38.0572 190.983 37.7552C190.983 37.4531 191.04 37.1511 191.146 36.8817C191.252 36.6123 191.407 36.3674 191.603 36.1552C191.798 35.9429 192.035 35.7796 192.312 35.6572C192.589 35.5348 192.891 35.4776 193.225 35.4776C193.559 35.4776 193.853 35.5348 194.122 35.6572C194.391 35.7796 194.627 35.9429 194.831 36.1552C195.035 36.3674 195.182 36.6123 195.296 36.8817C195.41 37.1511 195.459 37.4531 195.459 37.7552C195.459 38.0572 195.402 38.3511 195.296 38.6205C195.19 38.898 195.035 39.1429 194.839 39.347C194.644 39.5592 194.407 39.7225 194.13 39.845C193.853 39.9674 193.551 40.0245 193.217 40.0245H193.209ZM191.741 37.7552C191.741 38.0572 191.807 38.3347 191.937 38.5796C192.067 38.8245 192.247 39.0205 192.467 39.1674C192.687 39.3143 192.932 39.3796 193.201 39.3796C193.47 39.3796 193.722 39.3062 193.943 39.1592C194.163 39.0123 194.342 38.8164 194.481 38.5633C194.611 38.3103 194.676 38.0409 194.676 37.7388C194.676 37.4368 194.611 37.1592 194.481 36.9143C194.35 36.6694 194.171 36.4735 193.943 36.3266C193.722 36.1796 193.47 36.1062 193.201 36.1062C192.932 36.1062 192.687 36.1796 192.467 36.3266C192.247 36.4735 192.067 36.6694 191.937 36.9225C191.807 37.1674 191.741 37.445 191.741 37.7552Z" fill="white"/>
<path d="M202.609 39.9429H201.859V37.4858C201.859 37.0205 201.785 36.6776 201.647 36.4654C201.5 36.2531 201.28 36.1388 200.986 36.1388C200.783 36.1388 200.579 36.1878 200.383 36.2939C200.187 36.4001 200.008 36.5307 199.845 36.7021C199.682 36.8735 199.576 37.0694 199.511 37.2899V39.9429H198.761V35.5348H199.437V36.4899C199.56 36.2858 199.706 36.1062 199.894 35.9511C200.081 35.796 200.293 35.6817 200.53 35.6001C200.766 35.5184 201.019 35.4776 201.28 35.4776C201.541 35.4776 201.745 35.5266 201.924 35.6164C202.095 35.7062 202.234 35.8368 202.332 36.0082C202.429 36.1796 202.503 36.3674 202.544 36.596C202.584 36.8245 202.609 37.0613 202.609 37.3307V39.9592V39.9429Z" fill="white"/>
<path d="M175.713 16.8083H172.411L174.058 12.0491L175.705 16.8083H175.713ZM172.819 6.28587L164.781 29.1838H168.05L171.295 20.0002H176.83L180.018 29.1838H183.279L175.33 6.28587H172.819Z" fill="white"/>
<path d="M146.682 17.7308C146.682 20.041 145.924 21.9675 144.358 23.6083C142.793 25.2491 140.959 26.0491 138.749 26.0491C136.54 26.0491 134.722 25.2491 133.148 23.6083C131.583 21.9675 130.825 20.0491 130.825 17.7308C130.825 15.4124 131.583 13.5185 133.148 11.8777C134.714 10.2451 136.548 9.44506 138.749 9.44506V6.28587C135.749 6.28587 133.148 7.4124 131.021 9.64097C128.893 11.8695 127.808 14.5879 127.808 17.7308C127.808 20.8736 128.885 23.6165 131.021 25.8451C133.148 28.0655 135.749 29.192 138.749 29.192C141.749 29.192 144.366 28.0655 146.494 25.8451C148.622 23.6246 149.706 20.8981 149.706 17.7308H146.69H146.682Z" fill="white"/>
<path d="M123.21 17.7308C123.21 20.041 122.452 21.9675 120.887 23.6083C119.322 25.2491 117.487 26.0491 115.278 26.0491C113.069 26.0491 111.251 25.2491 109.677 23.6083C108.112 21.9675 107.354 20.0491 107.354 17.7308C107.354 15.4124 108.112 13.5185 109.677 11.8777C111.242 10.2451 113.077 9.44507 115.278 9.44507C117.479 9.44507 119.322 10.2451 120.887 11.8777C122.452 13.5104 123.21 15.4287 123.21 17.7308ZM115.278 6.29404C112.278 6.29404 109.677 7.42058 107.549 9.64915C105.421 11.8777 104.337 14.5961 104.337 17.7389C104.337 20.8818 105.413 23.6247 107.549 25.8532C109.677 28.0736 112.278 29.2002 115.278 29.2002C118.278 29.2002 120.895 28.0736 123.023 25.8532C125.151 23.6328 126.235 20.9063 126.235 17.7389C126.235 14.5716 125.159 11.8777 123.031 9.64915C120.903 7.42874 118.294 6.29404 115.286 6.29404" fill="white"/>
<path d="M151.272 29.1838H163.199V25.9675H154.345V19.3471H163.199V16.1308H154.345V9.49404H163.199V6.28587H151.272V29.1838Z" fill="white"/>
<path d="M199.535 6.28587V23.5675L187.738 6.28587H184.852V29.1838H187.926V12.3593L199.413 29.1838H202.609V6.28587H199.535Z" fill="white"/>
<path d="M63.0033 17.7308C63.0033 20.041 62.2451 21.9675 60.6798 23.6083C59.1145 25.2491 57.2802 26.0491 55.0708 26.0491C52.8614 26.0491 51.0434 25.2491 49.47 23.6083C47.9047 21.9675 47.1465 20.0491 47.1465 17.7308C47.1465 15.4124 47.9047 13.5185 49.47 11.8777C51.0353 10.2451 52.8696 9.44507 55.0708 9.44507C57.272 9.44507 59.1145 10.2451 60.6798 11.8777C62.2451 13.5104 63.0033 15.4287 63.0033 17.7308ZM55.0708 6.29404C52.0706 6.29404 49.47 7.42058 47.3421 9.64915C45.2143 11.8777 44.13 14.5961 44.13 17.7389C44.13 20.8818 45.2061 23.6247 47.3421 25.8532C49.47 28.0736 52.0706 29.2002 55.0708 29.2002C58.071 29.2002 60.6879 28.0736 62.8158 25.8532C64.9436 23.6328 66.0279 20.9063 66.0279 17.7389C66.0279 14.5716 64.9518 11.8777 62.8239 9.64915C60.6961 7.42874 58.0873 6.29404 55.0789 6.29404" fill="white"/>
<path d="M86.9312 29.1838H98.8585V25.9675H90.0129V19.3471H98.8585V16.1308H90.0129V9.49404H98.8585V6.28587H86.9312V29.1838Z" fill="white"/>
<path d="M82.2842 6.28587V23.5675L70.4874 6.28587H67.6014V29.1838H70.6749V12.3593L82.1619 29.1838H85.3578V6.28587H82.2842Z" fill="white"/>
<path d="M28.8196 2.0981C29.0642 2.26137 29.3006 2.4328 29.5371 2.61239C33.1324 5.33892 35.4558 9.30626 36.0754 13.7797C36.695 18.2532 35.5374 22.7022 32.8144 26.3022C30.0914 29.9022 26.1293 32.2287 21.6616 32.8491C17.194 33.4695 12.7508 32.3103 9.15552 29.5838C5.56022 26.8573 3.23673 22.8899 2.61713 18.4165C2.5356 17.8042 2.47854 17.2001 2.46223 16.5961L0.350704 16.7348C0.375162 17.3879 0.43223 18.0491 0.521909 18.7103C1.21488 23.7471 3.83187 28.2124 7.87556 31.2818C11.9274 34.3512 16.925 35.6573 21.9551 34.9634C26.9853 34.2695 31.4448 31.6491 34.5101 27.6001C37.5755 23.5512 38.8799 18.5389 38.187 13.5022C37.494 8.46545 34.877 4.00014 30.8333 0.930756C30.5724 0.726674 30.3034 0.538919 30.0262 0.351164L28.8359 2.10627L28.8196 2.0981Z" fill="white"/>
<path d="M31.2899 12.0654C31.7219 13.3471 31.9421 14.7022 31.9421 16.0899C31.9421 19.4532 30.6376 22.6124 28.2652 24.9879C25.8928 27.3634 22.7378 28.6695 19.3789 28.6695C16.02 28.6695 12.865 27.3634 10.4926 24.9879C8.12014 22.6124 6.81572 19.4532 6.81572 16.0899C6.81572 12.7267 8.006 9.86137 10.1746 7.52667L11.8214 8.87361C9.96263 10.8246 8.9354 13.3797 8.9354 16.0899C8.9354 18.8001 10.0197 21.5103 11.9926 23.4859C13.9656 25.4614 16.5907 26.5471 19.3789 26.5471C22.1671 26.5471 24.7922 25.4614 26.7652 23.4859C28.7381 21.5103 29.8224 18.8818 29.8224 16.0899C29.8224 14.8981 29.6267 13.7389 29.2436 12.645L31.2817 12.0654H31.2899Z" fill="white"/>
<path d="M16.338 9.52667C15.5798 9.87769 14.8868 10.3675 14.2754 10.9716C12.9139 12.3348 12.1638 14.1552 12.1638 16.0818C12.1638 18.0083 12.9139 19.8287 14.2754 21.192C15.6368 22.5552 17.4549 23.3063 19.3789 23.3063C21.3029 23.3063 23.1209 22.5552 24.4824 21.192C25.8439 19.8287 26.594 18.0083 26.594 16.0818C26.594 15.8369 26.5858 15.6001 26.5613 15.3634H28.6892C28.7055 15.6083 28.7136 15.845 28.7136 16.0818C28.7136 18.5797 27.7435 20.9308 25.9744 22.694C24.2134 24.4573 21.8654 25.4369 19.3707 25.4369C16.876 25.4369 14.5281 24.4654 12.7671 22.694C11.0062 20.9308 10.0279 18.5797 10.0279 16.0818C10.0279 13.5838 10.998 11.2328 12.7671 9.46953C13.5253 8.71035 14.3895 8.0981 15.3352 7.64096L16.3298 9.51851L16.338 9.52667Z" fill="white"/>
<path d="M19.2566 12.0818C18.2375 12.1144 17.2837 12.5226 16.5581 13.2491C15.7999 14.0083 15.3841 15.0124 15.3841 16.0818C15.3841 17.1512 15.7999 18.1552 16.5581 18.9144C17.3163 19.6736 18.3191 20.0899 19.3871 20.0899C20.455 20.0899 21.4578 19.6736 22.216 18.9144C22.9742 18.1552 23.39 17.1512 23.39 16.0818H25.5097C25.5097 17.7144 24.8738 19.2573 23.7161 20.4083C22.5584 21.5675 21.0257 22.2042 19.3952 22.2042C17.7647 22.2042 16.2238 21.5675 15.0743 20.4083C13.9166 19.2491 13.2807 17.7144 13.2807 16.0818C13.2807 14.4491 13.9166 12.9063 15.0743 11.7552C16.1994 10.6287 17.6832 9.99198 19.2648 9.95933V12.0818H19.2566Z" fill="white"/>
<path d="M30.6703 5.0532C33.4585 7.90218 35.1787 11.8124 35.1787 16.1144C35.1787 24.8491 28.1103 31.9267 19.387 31.9267C10.6638 31.9267 3.59544 24.8491 3.59544 16.1144C3.59544 13.241 4.36179 10.5552 5.69066 8.23688L7.54131 9.24912C6.36733 11.2736 5.69882 13.6165 5.69882 16.1144C5.69882 23.6736 11.8377 29.8205 19.387 29.8205C26.9364 29.8205 33.0753 23.6736 33.0753 16.1144C33.0753 12.3757 31.5752 8.97973 29.1376 6.50626L30.6703 5.0532Z" fill="white"/>
</g>
<defs>
<clipPath id="clip0_1_226">
<rect width="203" height="40" fill="white"/>
</clipPath>
</defs>
</svg>
